<svg width="153" height="15" viewBox="0 0 153 15" fill="none" xmlns="http://www.w3.org/2000/svg">
<path d="M5.45335 10.5686H9.88483V14.659H0V0.342651H5.45335V10.5686Z" fill="white"/>
<path d="M12.5273 2.19586C14.0601 0.733336 15.9062 0.00134277 18.0656 0.00134277C20.225 0.00134277 22.0711 0.733336 23.6053 2.19586C25.1396 3.65838 25.9067 5.42688 25.9067 7.49988C25.9067 9.57288 25.1396 11.3414 23.6053 12.8039C22.0711 14.2664 20.225 14.9984 18.0656 14.9984C15.9062 14.9984 14.0601 14.2664 12.5259 12.8039C10.9916 11.3414 10.226 9.57288 10.226 7.49988C10.226 5.42688 10.9931 3.65838 12.5259 2.19586H12.5273ZM16.3718 9.67243C16.8329 10.2697 17.398 10.5669 18.0656 10.5669C18.7332 10.5669 19.2983 10.2683 19.7594 9.67243C20.2206 9.07659 20.4519 8.35192 20.4519 7.49988C20.4519 6.64784 20.2206 5.92317 19.7594 5.32732C19.2983 4.73002 18.7332 4.43283 18.0656 4.43283C17.398 4.43283 16.8329 4.73148 16.3718 5.32732C15.9106 5.92317 15.6793 6.64784 15.6793 7.49988C15.6793 8.35192 15.9106 9.07659 16.3718 9.67243Z" fill="white"/>
<path d="M35.3217 10.5685C36.5295 10.5685 37.5938 10.0005 38.5175 8.86443L39.8805 13.2959C38.4605 14.432 36.8266 15 34.9806 15C32.5943 15 30.5988 14.2724 28.9943 12.8157C27.3898 11.3605 26.5875 9.58764 26.5875 7.5C26.5875 5.41236 27.3898 3.64093 28.9943 2.18427C30.5988 0.729065 32.5943 0 34.9806 0C36.8266 0 38.4605 0.568027 39.8805 1.70408L38.5175 6.13556C37.6084 4.99951 36.5441 4.43149 35.3217 4.43149C34.4403 4.43149 33.6732 4.72282 33.0203 5.30548C32.3673 5.88815 32.0409 6.61868 32.0409 7.5C32.0409 8.38132 32.36 9.09428 32.9998 9.68427C33.6395 10.2743 34.4125 10.5685 35.3217 10.5685Z" fill="white"/>
<path d="M42.6927 2.19586C44.227 0.733336 46.0731 0.00134277 48.2325 0.00134277C50.3918 0.00134277 52.2379 0.733336 53.7722 2.19586C55.3064 3.65838 56.0736 5.42688 56.0736 7.49988C56.0736 9.57288 55.3064 11.3414 53.7722 12.8039C52.2379 14.2664 50.3918 14.9984 48.2325 14.9984C46.0731 14.9984 44.227 14.2664 42.6927 12.8039C41.1585 11.3414 40.3928 9.57288 40.3928 7.49988C40.3928 5.42688 41.1599 3.65838 42.6927 2.19586ZM46.5372 9.67243C46.9983 10.2697 47.5634 10.5669 48.231 10.5669C48.8986 10.5669 49.4637 10.2683 49.9248 9.67243C50.386 9.07659 50.6173 8.35192 50.6173 7.49988C50.6173 6.64784 50.386 5.92317 49.9248 5.32732C49.4637 4.73002 48.8986 4.43283 48.231 4.43283C47.5634 4.43283 46.9983 4.73148 46.5372 5.32732C46.076 5.92317 45.8447 6.64784 45.8447 7.49988C45.8447 8.35192 46.076 9.07659 46.5372 9.67243Z" fill="white"/>
<path d="M96.8339 8.69173H99.0796L97.9143 5.90283L96.8339 8.69173Z" fill="#FAB52C"/>
<path d="M72.9036 5.15894C72.1833 5.15894 71.5685 5.41221 71.0619 5.92021C70.5539 6.42821 70.3007 7.04162 70.3007 7.7619C70.3007 8.48218 70.5539 9.09706 71.0619 9.6036C71.5699 10.1116 72.1833 10.3649 72.9036 10.3649C73.6239 10.3649 74.2388 10.1116 74.7453 9.6036C75.2533 9.09706 75.5066 8.48218 75.5066 7.7619C75.5066 7.04162 75.2533 6.42675 74.7453 5.92021C74.2373 5.41221 73.6239 5.15894 72.9036 5.15894Z" fill="#FAB52C"/>
<path d="M81.9275 5.48982C81.683 5.29657 81.3712 5.19849 80.992 5.19849H79.5046V7.576H80.992C81.3566 7.576 81.664 7.47206 81.9158 7.26271C82.1676 7.05336 82.2935 6.78691 82.2935 6.46044C82.2935 5.99197 82.172 5.68307 81.9275 5.48982Z" fill="#FAB52C"/>
<path d="M117.16 5.15894C116.44 5.15894 115.825 5.41221 115.318 5.92021C114.81 6.42821 114.557 7.04162 114.557 7.7619C114.557 8.48218 114.81 9.09706 115.318 9.6036C115.825 10.1116 116.44 10.3649 117.16 10.3649C117.88 10.3649 118.495 10.1116 119.002 9.6036C119.508 9.09706 119.763 8.48218 119.763 7.7619C119.763 7.04162 119.51 6.42675 119.002 5.92021C118.494 5.41221 117.88 5.15894 117.16 5.15894Z" fill="#FAB52C"/>
<path d="M56.7529 0.342651C60.7847 4.26321 60.7847 10.7384 56.7529 14.659H152.559V0.342651H56.7529ZM67.4532 8.29063C66.9803 8.80595 66.3494 9.06361 65.5588 9.06361H63.8855V11.6666H62.3981V3.85768H65.187C66.1707 3.85768 66.913 4.09338 67.4122 4.56625C67.9114 5.03912 68.1618 5.6701 68.1618 6.46065C68.1618 7.16629 67.9246 7.77531 67.4532 8.29063ZM75.7979 10.6564C75.0001 11.4543 74.0353 11.854 72.9036 11.854C71.772 11.854 70.8072 11.4543 70.0093 10.6564C69.2114 9.85856 68.8118 8.89379 68.8118 7.76213C68.8118 6.63047 69.2114 5.6657 70.0093 4.86783C70.8072 4.06996 71.772 3.67029 72.9036 3.67029C74.0353 3.67029 75.0001 4.06996 75.7979 4.86783C76.5958 5.6657 76.9955 6.63047 76.9955 7.76213C76.9955 8.89379 76.5958 9.85856 75.7979 10.6564ZM82.1545 11.668L80.3992 9.06508H79.5047V11.668H78.0173L78.0525 3.67176H80.8414C81.8252 3.67176 82.5674 3.90746 83.0666 4.38032C83.5658 4.85319 83.781 5.6701 83.781 6.46065C83.781 7.02575 83.6215 7.53961 83.3052 8.00076C82.9876 8.46192 82.5498 8.77814 81.992 8.94796L83.9684 11.668H82.156H82.1545ZM93.2647 11.668H88.6151V3.66004H90.1025V10.1806H93.2633V11.668H93.2647ZM100.323 11.668L99.7004 10.1806H96.2396L95.6584 11.668H93.985L97.216 3.85768H98.5644L101.819 11.668H100.323ZM108.003 9.60383C108.53 10.1118 109.165 10.3651 109.909 10.3651C110.653 10.3651 111.33 10.0972 111.85 9.56283L112.42 10.9112C112.095 11.2054 111.702 11.4367 111.245 11.6022C110.789 11.7691 110.335 11.8525 109.885 11.8525C108.739 11.8525 107.758 11.4514 106.946 10.6491C106.132 9.84685 105.725 8.88501 105.725 7.76067C105.725 6.63633 106.132 5.67449 106.946 4.87222C107.76 4.06996 108.739 3.66883 109.885 3.66883C110.335 3.66883 110.789 3.75081 111.245 3.91331C111.702 4.07582 112.095 4.3042 112.42 4.59846L111.85 5.94679C111.307 5.41975 110.66 5.15624 109.909 5.15624C109.158 5.15624 108.53 5.40951 108.003 5.91751C107.476 6.42551 107.212 7.03892 107.212 7.7592C107.212 8.47949 107.476 9.09436 108.003 9.6009V9.60383ZM120.054 10.6564C119.256 11.4543 118.292 11.854 117.16 11.854C116.028 11.854 115.063 11.4543 114.266 10.6564C113.468 9.85856 113.068 8.89379 113.068 7.76213C113.068 6.63047 113.468 5.6657 114.266 4.86783C115.063 4.06996 116.028 3.67029 117.16 3.67029C118.292 3.67029 119.256 4.06996 120.054 4.86783C120.852 5.6657 121.252 6.63047 121.252 7.76213C121.252 8.89379 120.852 9.85856 120.054 10.6564ZM124.273 9.60383C124.8 10.1118 125.436 10.3651 126.18 10.3651C126.923 10.3651 127.601 10.0972 128.121 9.56283L128.69 10.9112C128.365 11.2054 127.973 11.4367 127.516 11.6022C127.059 11.7691 126.606 11.8525 126.156 11.8525C125.01 11.8525 124.029 11.4514 123.216 10.6491C122.402 9.84685 121.995 8.88501 121.995 7.76067C121.995 6.63633 122.402 5.67449 123.216 4.87222C124.03 4.06996 125.01 3.66883 126.156 3.66883C126.606 3.66883 127.059 3.75081 127.516 3.91331C127.973 4.07582 128.365 4.3042 128.69 4.59846L128.121 5.94679C127.578 5.41975 126.931 5.15624 126.18 5.15624C125.429 5.15624 124.8 5.40951 124.273 5.91751C123.746 6.42551 123.483 7.03892 123.483 7.7592C123.483 8.47949 123.746 9.09436 124.273 9.6009V9.60383ZM131.2 11.668H129.712V3.85768H131.2V11.668ZM139.568 11.668H138.08L134.176 6.27472V11.668H132.688V3.85768H134.163L138.082 9.27004V3.85768H139.569V11.668H139.568ZM146.626 11.668L146.003 10.1806H142.543L141.961 11.668H140.288L143.519 3.85768H144.867L148.122 11.668H146.626Z" fill="#FAB52C"/>
<path d="M143.135 8.69173H145.383L144.217 5.90283L143.135 8.69173Z" fill="#FAB52C"/>
<path d="M65.3728 5.34473H63.8854V7.57584H65.3728C65.7373 7.57584 66.0448 7.4719 66.2966 7.26255C66.5484 7.0532 66.6743 6.78675 66.6743 6.46028C66.6743 6.10453 66.5528 5.8293 66.3083 5.63459C66.0638 5.43988 65.752 5.34326 65.3728 5.34326V5.34473Z" fill="#FAB52C"/>
</svg>
