<?xml version="1.0" encoding="UTF-8"?>
<svg id="Capa_1" xmlns="http://www.w3.org/2000/svg" version="1.1" viewBox="0 0 2648.8 368.3">
  <!-- Generator: Adobe Illustrator 29.7.1, SVG Export Plug-In . SVG Version: 2.1.1 Build 8)  -->
  <defs>
    <style>
      .st0 {
        fill: #fff;
      }

      .st1 {
        fill: #e0a638;
      }
    </style>
  </defs>
  <path class="st0" d="M63.9,4.9v293.2h67.8v64.4H0V4.9h63.9Z"/>
  <path class="st0" d="M327.4,280.9c0,52.4-27.9,87-76,87h-14.4c-50.5,0-77.4-31.2-77.4-87V91.9C159.6,36.7,181.2.6,236.5.6h14.4c56.2,0,76.4,36.1,76.4,90.9v189.4ZM260.5,86.7c0-15.9-5.3-23.6-16.8-23.6s-17.3,7.7-17.3,23.6v196.1c0,11.1,4.3,21.1,17.8,21.1s16.3-10.1,16.3-21.1V86.7Z"/>
  <path class="st0" d="M436,367.9c-46.6,0-73.1-29.8-73.1-88.4V4.9h65.9v276.9c0,13.9,4.8,22.1,15.9,22.1s15.4-8.2,15.4-22.1V4.9h65.9v274.5c0,58.6-28.8,88.4-74,88.4h-15.9Z"/>
  <path class="st0" d="M660.5,283.7v-78.8h63.5v80.8c0,42.8-17.3,82.7-74,82.7h-13c-61.5,0-75.5-39.9-75.5-84.6V81.8c0-43.3,18.7-81.2,75.5-81.2h13c61,0,74,38,74,78.8v60.1h-63.5v-57.7c0-13.5-4.3-20.7-16.3-20.7s-15.9,6.7-15.9,20.7v201.9c0,13.9,4.8,21.6,16.3,21.6s15.9-8.7,15.9-21.6Z"/>
  <path class="st0" d="M925.4,280.9c0,52.4-27.9,87-76,87h-14.4c-50.5,0-77.4-31.2-77.4-87V91.9c0-55.3,21.6-91.3,76.9-91.3h14.4c56.2,0,76.4,36.1,76.4,90.9v189.4ZM858.5,86.7c0-15.9-5.3-23.6-16.8-23.6s-17.3,7.7-17.3,23.6v196.1c0,11.1,4.3,21.1,17.8,21.1s16.3-10.1,16.3-21.1V86.7Z"/>
  <path class="st0" d="M956.1,292.9v-64.4h63v57.2c0,14.4,4.8,21.6,16.3,21.6s15.9-8.7,15.9-26v-6.7c0-25-1.9-35.1-20.7-55.8l-37-40.9c-26.4-28.8-34.1-57.2-34.1-90.9v-15.4c0-45.7,27.9-71.1,72.6-71.1h13c50,0,68.7,23.1,68.7,70.2v48.1h-61.5v-44.7c0-11.5-2.4-18.7-13.9-18.7s-13.9,7.2-13.9,19.2v8.2c0,16.8,3.8,28.4,19.7,46.1l36.5,40.9c32.2,36.1,38.9,61.5,38.9,91.8v16.8c0,53.4-25,88.4-77.9,88.4h-12.5c-48.6,0-73.1-26-73.1-74Z"/>
  <g>
    <path class="st1" d="M1533,117.7h-9.6v52.9h7.7c9.5,0,16.2-2,20.2-6,4-4,6-10.9,6-20.6s-1.7-16.1-5.2-20.2c-3.5-4.1-9.8-6.1-19-6.1Z"/>
    <path class="st1" d="M1410.7,124.8c-1.2-2.5-3.1-4.4-5.6-5.6-2.5-1.2-5.6-1.9-9.4-1.9s-7,.6-9.5,1.9c-2.5,1.2-4.4,3.1-5.6,5.6-1.2,2.5-2,5.2-2.4,8-.4,2.8-.6,6.4-.6,10.6v79.7c0,3.3.1,6.2.4,8.6.2,2.4.7,4.8,1.5,7.2.7,2.4,1.7,4.3,3,5.8,1.3,1.5,3,2.7,5.2,3.6,2.2.9,4.9,1.4,8,1.4s5.7-.5,7.9-1.4c2.2-.9,3.9-2.1,5.2-3.6,1.3-1.5,2.3-3.4,3.1-5.8.7-2.4,1.2-4.8,1.5-7.2.2-2.4.4-5.3.4-8.6v-79.7c0-4.2-.2-7.8-.6-10.6-.4-2.8-1.3-5.5-2.5-8Z"/>
    <path class="st1" d="M1908.8,124.8c-1.2-2.5-3.1-4.4-5.6-5.6-2.5-1.2-5.6-1.9-9.4-1.9s-7,.6-9.5,1.9c-2.5,1.2-4.4,3.1-5.6,5.6-1.2,2.5-2,5.2-2.4,8-.4,2.8-.6,6.4-.6,10.6v79.7c0,3.3.1,6.2.4,8.6.2,2.4.7,4.8,1.5,7.2.7,2.4,1.7,4.3,3,5.8,1.3,1.5,3,2.7,5.2,3.6,2.2.9,4.9,1.4,8,1.4s5.7-.5,7.9-1.4c2.2-.9,3.9-2.1,5.2-3.6,1.3-1.5,2.3-3.4,3.1-5.8.7-2.4,1.2-4.8,1.5-7.2.2-2.4.4-5.3.4-8.6v-79.7c0-4.2-.2-7.8-.6-10.6-.4-2.8-1.3-5.5-2.5-8Z"/>
    <path class="st1" d="M1123,0c16.6,19.8,21.4,46.5,21.4,70.8v78.7h-40.9c38.8,43.4,46.7,76.2,46.7,112.2v16.8c0,37.7-11,68.1-30.7,88.7h1529.4V0h-1525.8ZM1297.1,181.4c-8.2,7.6-19.7,11.4-34.6,11.4h-16.5v78.4h-32V95.7h50.5c29.9,0,44.9,16.6,44.9,49.8s-4.1,28.2-12.3,35.8ZM1446.3,215.5c0,9.2-.9,17.2-2.7,24.2-1.8,7-4.7,13-8.6,18.1-3.9,5.1-9.2,9-15.7,11.6-6.6,2.6-14.4,3.9-23.6,3.9-18.1,0-31-4.9-38.8-14.7-7.8-9.8-11.7-24.2-11.7-43.1v-64.8c0-9.3.9-17.4,2.6-24.2,1.8-6.8,4.6-12.8,8.5-17.8,3.9-5,9.2-8.8,15.7-11.3,6.6-2.5,14.5-3.8,23.7-3.8,18,0,30.9,4.8,38.8,14.5,7.9,9.7,11.8,23.8,11.8,42.5v64.8ZM1558.5,271.1l-20.9-80.1h-14.2v80.1h-32V95.7h40.2c9.2,0,17.2.8,23.8,2.3,6.6,1.5,12.4,4.1,17.3,7.6,4.9,3.6,8.6,8.4,11,14.5,2.4,6.1,3.7,13.6,3.7,22.4s-1.6,20-4.9,27c-3.3,7-8.7,12.1-16.2,15.2l24.3,86.4h-32.1ZM1802.3,159.4h-30.8v-14.9c0-8.7-.5-14.6-1.4-17.7-1.8-5.9-6.3-9.1-13.4-9.5h-1.7c-2.7,0-5,.3-7,1-2,.6-3.7,1.6-4.9,3-1.3,1.4-2.3,2.8-3.1,4.4-.8,1.6-1.4,3.6-1.7,6.1-.4,2.5-.6,4.8-.7,6.9-.1,2.1-.2,4.8-.2,8v74.3c0,10.3,1.3,17.6,3.9,22,2.6,4.4,7.2,6.6,13.8,6.6s4.2-.3,6-.8c1.7-.5,3.2-1.2,4.3-2,1.2-.8,2.2-2,3-3.5.8-1.5,1.4-2.9,1.9-4.2.4-1.3.7-3.1,1-5.5.2-2.3.3-4.3.4-5.9,0-1.6,0-3.8,0-6.7v-15.7h30.8v14.4c0,6.6-.5,12.5-1.4,17.7-.9,5.2-2.5,10.1-4.7,14.7-2.2,4.6-5.1,8.4-8.6,11.4-3.5,3-8,5.4-13.5,7.1-5.5,1.7-11.9,2.6-19.2,2.6s-14.2-1-20-2.9c-5.8-1.9-10.6-4.5-14.3-7.9-3.8-3.4-6.8-7.6-9.2-12.6-2.4-5-4-10.4-5-16.1-1-5.7-1.4-12.2-1.4-19.4v-61.2c0-7.6.5-14.4,1.5-20.3,1-5.9,2.6-11.4,5-16.4,2.3-5,5.4-9.2,9.2-12.4,3.8-3.2,8.5-5.8,14.3-7.6,5.7-1.8,12.4-2.8,20.1-2.8s16.2,1.2,22.4,3.5c6.2,2.3,11.1,5.7,14.7,10.3,3.6,4.5,6.2,9.8,7.8,15.8,1.6,6,2.4,13.1,2.4,21.1v15ZM1944.4,215.5c0,9.2-.9,17.2-2.7,24.2-1.8,7-4.7,13-8.6,18.1-3.9,5.1-9.2,9-15.7,11.6-6.6,2.6-14.4,3.9-23.6,3.9-18.1,0-31-4.9-38.8-14.7-7.8-9.8-11.7-24.2-11.7-43.1v-64.8c0-9.3.9-17.4,2.6-24.2,1.8-6.8,4.6-12.8,8.5-17.8,3.9-5,9.2-8.8,15.7-11.3,6.6-2.5,14.5-3.8,23.7-3.8,18,0,30.9,4.8,38.8,14.5,7.9,9.7,11.8,23.8,11.8,42.5v64.8ZM2063.3,271.1h-79.4v-21l46.6-132.4h-44.2v-22.1h76.9v15.8l-48.8,137.5h48.9v22.1ZM2135.7,271.1h-31.5V95.7h31.5v175.4ZM2275.7,271.1h-21l-43.4-104.4v104.4h-27.1V95.7h22l43,99.4v-99.4h26.5v175.4ZM2423.5,271.1h-32v-79.4h-35.7v79.4h-32V95.7h32v73.3h35.7v-73.3h32v175.4ZM2537.5,271.1l-7.1-40.7h-30.4l-7.2,40.7h-30.2l35.7-175.4h33.3l35.6,175.4h-29.7Z"/>
    <path class="st1" d="M1275.7,124.6c-1.6-2.4-3.9-4.1-6.9-5-3.1-.9-7.2-1.4-12.4-1.4h-10.4v52.1h10.3c9,0,15.1-1.8,18.3-5.3,3.2-3.6,4.8-10.1,4.8-19.6s-.2-9.6-.6-12.6c-.4-3-1.4-5.7-3-8.1Z"/>
    <polygon class="st1" points="2503.4 209.6 2526.9 209.6 2515.1 137.5 2503.4 209.6"/>
  </g>
</svg>