<svg width="52" height="53" viewBox="0 0 52 53" fill="none" xmlns="http://www.w3.org/2000/svg">
<path d="M19.688 37.0597L37.0468 26.0095L19.688 14.9592V37.0597ZM25.9965 52.0129C22.4402 52.0129 19.0849 51.3336 15.9237 49.9679C12.7626 48.6022 9.99653 46.7374 7.63258 44.3804C5.26863 42.0164 3.40381 39.2573 2.04506 36.0892C0.679374 32.928 0 29.5658 0 26.0164C0 22.467 0.679374 19.0355 2.04506 15.8743C3.41074 12.7131 5.27556 9.96095 7.63258 7.61779C9.99653 5.27464 12.7556 3.42369 15.9237 2.05801C19.0849 0.692324 22.4471 0.0129395 25.9965 0.0129395C29.5459 0.0129395 32.9775 0.692324 36.1386 2.05801C39.2998 3.42369 42.052 5.27464 44.3951 7.61779C46.7383 9.96095 48.5893 12.7131 49.9549 15.8743C51.3206 19.0355 52 22.4185 52 26.0164C52 29.6143 51.3206 32.928 49.9549 36.0892C48.5893 39.2504 46.7383 42.0164 44.3951 44.3804C42.052 46.7443 39.2998 48.6091 36.1386 49.9679C32.9775 51.3336 29.5945 52.0129 25.9965 52.0129ZM25.9965 48.11C32.1525 48.11 37.3726 45.954 41.6638 41.6421C45.9549 37.3301 48.097 32.1169 48.097 26.0095C48.097 19.902 45.9549 14.6334 41.6638 10.3422C37.3726 6.05106 32.1525 3.90895 25.9965 3.90895C19.8406 3.90895 14.6759 6.05106 10.3639 10.3422C6.05199 14.6334 3.89601 19.8535 3.89601 26.0095C3.89601 32.1654 6.05199 37.3301 10.3639 41.6421C14.6759 45.954 19.8891 48.11 25.9965 48.11Z" fill="white"/>
</svg>
